STARTFONT 2.1
FONT -t-cherry-Medium-R-Normal--13-120-96-96-C-100-ISO8859-1
SIZE 12 96 96
FONTBOUNDINGBOX 7 13 0 -2
STARTPROPERTIES 13
POINT_SIZE 120
PIXEL_SIZE 13
RESOLUTION_X 96
RESOLUTION_Y 96
FONT_ASCENT 11
FONT_DESCENT 2
AVERAGE_WIDTH 100
SPACING "C"
_GBDFED_INFO "Edited with gbdfed 1.6."
FOUNDRY "t"
FAMILY_NAME "cherry"
CHARSET_ENCODING "1"
CHARSET_REGISTRY "ISO8859"
ENDPROPERTIES
CHARS 192
STARTCHAR char0
ENCODING 0
SWIDTH 437 0
DWIDTH 7 0
BBX 7 13 0 -2
BITMAP
FE
FE
FE
FE
FE
FE
FE
FE
FE
FE
FE
FE
FE
ENDCHAR
STARTCHAR char32
ENCODING 32
SWIDTH 437 0
DWIDTH 7 0
BBX 7 13 0 -2
BITMAP
00
00
00
00
00
00
00
00
00
00
00
00
00
ENDCHAR
STARTCHAR char33
ENCODING 33
SWIDTH 437 0
DWIDTH 7 0
BBX 7 13 0 -2
BITMAP
00
00
10
10
10
10
10
10
00
10
10
00
00
ENDCHAR
STARTCHAR char34
ENCODING 34
SWIDTH 437 0
DWIDTH 7 0
BBX 7 13 0 -2
BITMAP
00
00
28
28
28
00
00
00
00
00
00
00
00
ENDCHAR
STARTCHAR char35
ENCODING 35
SWIDTH 437 0
DWIDTH 7 0
BBX 7 13 0 -2
BITMAP
00
00
28
28
7C
28
28
28
7C
28
28
00
00
ENDCHAR
STARTCHAR char36
ENCODING 36
SWIDTH 437 0
DWIDTH 7 0
BBX 7 13 0 -2
BITMAP
00
00
10
38
54
50
30
18
14
54
38
10
00
ENDCHAR
STARTCHAR char37
ENCODING 37
SWIDTH 437 0
DWIDTH 7 0
BBX 7 13 0 -2
BITMAP
00
00
24
54
58
28
10
28
34
54
48
00
00
ENDCHAR
STARTCHAR char38
ENCODING 38
SWIDTH 437 0
DWIDTH 7 0
BBX 7 13 0 -2
BITMAP
00
00
10
28
28
10
30
4A
4A
44
3A
00
00
ENDCHAR
STARTCHAR char39
ENCODING 39
SWIDTH 437 0
DWIDTH 7 0
BBX 7 13 0 -2
BITMAP
00
00
18
10
20
00
00
00
00
00
00
00
00
ENDCHAR
STARTCHAR char40
ENCODING 40
SWIDTH 437 0
DWIDTH 7 0
BBX 7 13 0 -2
BITMAP
00
08
10
10
20
20
20
20
20
10
10
08
00
ENDCHAR
STARTCHAR char41
ENCODING 41
SWIDTH 437 0
DWIDTH 7 0
BBX 7 13 0 -2
BITMAP
00
20
10
10
08
08
08
08
08
10
10
20
00
ENDCHAR
STARTCHAR char42
ENCODING 42
SWIDTH 437 0
DWIDTH 7 0
BBX 7 13 0 -2
BITMAP
00
00
00
00
00
28
10
7C
10
28
00
00
00
ENDCHAR
STARTCHAR char43
ENCODING 43
SWIDTH 437 0
DWIDTH 7 0
BBX 7 13 0 -2
BITMAP
00
00
00
00
00
10
10
7C
10
10
00
00
00
ENDCHAR
STARTCHAR char44
ENCODING 44
SWIDTH 437 0
DWIDTH 7 0
BBX 7 13 0 -2
BITMAP
00
00
00
00
00
00
00
00
00
18
10
20
00
ENDCHAR
STARTCHAR char45
ENCODING 45
SWIDTH 437 0
DWIDTH 7 0
BBX 7 13 0 -2
BITMAP
00
00
00
00
00
00
00
7C
00
00
00
00
00
ENDCHAR
STARTCHAR char46
ENCODING 46
SWIDTH 437 0
DWIDTH 7 0
BBX 7 13 0 -2
BITMAP
00
00
00
00
00
00
00
00
00
18
18
00
00
ENDCHAR
STARTCHAR char47
ENCODING 47
SWIDTH 437 0
DWIDTH 7 0
BBX 7 13 0 -2
BITMAP
00
04
04
08
08
10
10
10
20
20
40
40
00
ENDCHAR
STARTCHAR char48
ENCODING 48
SWIDTH 437 0
DWIDTH 7 0
BBX 7 13 0 -2
BITMAP
00
00
38
44
44
4C
54
64
44
44
38
00
00
ENDCHAR
STARTCHAR char49
ENCODING 49
SWIDTH 437 0
DWIDTH 7 0
BBX 7 13 0 -2
BITMAP
00
00
10
30
50
10
10
10
10
10
10
00
00
ENDCHAR
STARTCHAR char50
ENCODING 50
SWIDTH 437 0
DWIDTH 7 0
BBX 7 13 0 -2
BITMAP
00
00
38
44
44
04
08
10
20
40
7C
00
00
ENDCHAR
STARTCHAR char51
ENCODING 51
SWIDTH 437 0
DWIDTH 7 0
BBX 7 13 0 -2
BITMAP
00
00
38
44
04
04
18
04
04
44
38
00
00
ENDCHAR
STARTCHAR char52
ENCODING 52
SWIDTH 437 0
DWIDTH 7 0
BBX 7 13 0 -2
BITMAP
00
00
08
18
18
28
28
48
7C
08
08
00
00
ENDCHAR
STARTCHAR char53
ENCODING 53
SWIDTH 437 0
DWIDTH 7 0
BBX 7 13 0 -2
BITMAP
00
00
7C
40
40
40
78
04
04
04
78
00
00
ENDCHAR
STARTCHAR char54
ENCODING 54
SWIDTH 437 0
DWIDTH 7 0
BBX 7 13 0 -2
BITMAP
00
00
38
40
40
40
78
44
44
44
38
00
00
ENDCHAR
STARTCHAR char55
ENCODING 55
SWIDTH 437 0
DWIDTH 7 0
BBX 7 13 0 -2
BITMAP
00
00
7C
04
04
08
08
10
10
20
20
00
00
ENDCHAR
STARTCHAR char56
ENCODING 56
SWIDTH 437 0
DWIDTH 7 0
BBX 7 13 0 -2
BITMAP
00
00
38
44
44
44
38
44
44
44
38
00
00
ENDCHAR
STARTCHAR char57
ENCODING 57
SWIDTH 437 0
DWIDTH 7 0
BBX 7 13 0 -2
BITMAP
00
00
38
44
44
44
3C
04
04
04
38
00
00
ENDCHAR
STARTCHAR char58
ENCODING 58
SWIDTH 437 0
DWIDTH 7 0
BBX 7 13 0 -2
BITMAP
00
00
00
00
18
18
00
00
00
18
18
00
00
ENDCHAR
STARTCHAR char59
ENCODING 59
SWIDTH 437 0
DWIDTH 7 0
BBX 7 13 0 -2
BITMAP
00
00
00
00
18
18
00
00
00
18
10
20
00
ENDCHAR
STARTCHAR char60
ENCODING 60
SWIDTH 437 0
DWIDTH 7 0
BBX 7 13 0 -2
BITMAP
00
00
00
00
02
0C
30
40
30
0C
02
00
00
ENDCHAR
STARTCHAR char61
ENCODING 61
SWIDTH 437 0
DWIDTH 7 0
BBX 7 13 0 -2
BITMAP
00
00
00
00
00
00
7C
00
7C
00
00
00
00
ENDCHAR
STARTCHAR char62
ENCODING 62
SWIDTH 437 0
DWIDTH 7 0
BBX 7 13 0 -2
BITMAP
00
00
00
00
40
30
0C
02
0C
30
40
00
00
ENDCHAR
STARTCHAR char63
ENCODING 63
SWIDTH 437 0
DWIDTH 7 0
BBX 7 13 0 -2
BITMAP
00
00
38
44
44
04
18
10
00
10
10
00
00
ENDCHAR
STARTCHAR char64
ENCODING 64
SWIDTH 437 0
DWIDTH 7 0
BBX 7 13 0 -2
BITMAP
00
00
38
44
5C
54
54
54
4C
40
3C
00
00
ENDCHAR
STARTCHAR char65
ENCODING 65
SWIDTH 437 0
DWIDTH 7 0
BBX 7 13 0 -2
BITMAP
00
00
18
18
24
24
24
3C
42
42
42
00
00
ENDCHAR
STARTCHAR char66
ENCODING 66
SWIDTH 437 0
DWIDTH 7 0
BBX 7 13 0 -2
BITMAP
00
00
78
44
44
44
78
44
44
44
78
00
00
ENDCHAR
STARTCHAR char67
ENCODING 67
SWIDTH 437 0
DWIDTH 7 0
BBX 7 13 0 -2
BITMAP
00
00
38
44
40
40
40
40
40
44
38
00
00
ENDCHAR
STARTCHAR char68
ENCODING 68
SWIDTH 437 0
DWIDTH 7 0
BBX 7 13 0 -2
BITMAP
00
00
70
48
44
44
44
44
44
48
70
00
00
ENDCHAR
STARTCHAR char69
ENCODING 69
SWIDTH 437 0
DWIDTH 7 0
BBX 7 13 0 -2
BITMAP
00
00
7C
40
40
40
78
40
40
40
7C
00
00
ENDCHAR
STARTCHAR char70
ENCODING 70
SWIDTH 437 0
DWIDTH 7 0
BBX 7 13 0 -2
BITMAP
00
00
7C
40
40
40
78
40
40
40
40
00
00
ENDCHAR
STARTCHAR char71
ENCODING 71
SWIDTH 437 0
DWIDTH 7 0
BBX 7 13 0 -2
BITMAP
00
00
38
44
40
40
4C
44
44
44
38
00
00
ENDCHAR
STARTCHAR char72
ENCODING 72
SWIDTH 437 0
DWIDTH 7 0
BBX 7 13 0 -2
BITMAP
00
00
44
44
44
44
7C
44
44
44
44
00
00
ENDCHAR
STARTCHAR char73
ENCODING 73
SWIDTH 437 0
DWIDTH 7 0
BBX 7 13 0 -2
BITMAP
00
00
7C
10
10
10
10
10
10
10
7C
00
00
ENDCHAR
STARTCHAR char74
ENCODING 74
SWIDTH 437 0
DWIDTH 7 0
BBX 7 13 0 -2
BITMAP
00
00
3C
08
08
08
08
08
48
48
30
00
00
ENDCHAR
STARTCHAR char75
ENCODING 75
SWIDTH 437 0
DWIDTH 7 0
BBX 7 13 0 -2
BITMAP
00
00
44
44
48
48
70
48
48
44
44
00
00
ENDCHAR
STARTCHAR char76
ENCODING 76
SWIDTH 437 0
DWIDTH 7 0
BBX 7 13 0 -2
BITMAP
00
00
40
40
40
40
40
40
40
40
7C
00
00
ENDCHAR
STARTCHAR char77
ENCODING 77
SWIDTH 437 0
DWIDTH 7 0
BBX 7 13 0 -2
BITMAP
00
00
44
6C
54
54
44
44
44
44
44
00
00
ENDCHAR
STARTCHAR char78
ENCODING 78
SWIDTH 437 0
DWIDTH 7 0
BBX 7 13 0 -2
BITMAP
00
00
44
44
64
64
54
4C
4C
44
44
00
00
ENDCHAR
STARTCHAR char79
ENCODING 79
SWIDTH 437 0
DWIDTH 7 0
BBX 7 13 0 -2
BITMAP
00
00
38
44
44
44
44
44
44
44
38
00
00
ENDCHAR
STARTCHAR char80
ENCODING 80
SWIDTH 437 0
DWIDTH 7 0
BBX 7 13 0 -2
BITMAP
00
00
78
44
44
44
78
40
40
40
40
00
00
ENDCHAR
STARTCHAR char81
ENCODING 81
SWIDTH 437 0
DWIDTH 7 0
BBX 7 13 0 -2
BITMAP
00
00
38
44
44
44
44
44
44
54
38
04
00
ENDCHAR
STARTCHAR char82
ENCODING 82
SWIDTH 437 0
DWIDTH 7 0
BBX 7 13 0 -2
BITMAP
00
00
78
44
44
44
78
48
48
44
44
00
00
ENDCHAR
STARTCHAR char83
ENCODING 83
SWIDTH 437 0
DWIDTH 7 0
BBX 7 13 0 -2
BITMAP
00
00
38
44
40
40
38
04
04
44
38
00
00
ENDCHAR
STARTCHAR char84
ENCODING 84
SWIDTH 437 0
DWIDTH 7 0
BBX 7 13 0 -2
BITMAP
00
00
7C
10
10
10
10
10
10
10
10
00
00
ENDCHAR
STARTCHAR char85
ENCODING 85
SWIDTH 437 0
DWIDTH 7 0
BBX 7 13 0 -2
BITMAP
00
00
44
44
44
44
44
44
44
44
38
00
00
ENDCHAR
STARTCHAR char86
ENCODING 86
SWIDTH 437 0
DWIDTH 7 0
BBX 7 13 0 -2
BITMAP
00
00
42
42
42
24
24
24
24
18
18
00
00
ENDCHAR
STARTCHAR char87
ENCODING 87
SWIDTH 437 0
DWIDTH 7 0
BBX 7 13 0 -2
BITMAP
00
00
44
44
44
44
44
54
54
6C
44
00
00
ENDCHAR
STARTCHAR char88
ENCODING 88
SWIDTH 437 0
DWIDTH 7 0
BBX 7 13 0 -2
BITMAP
00
00
44
44
28
28
10
28
28
44
44
00
00
ENDCHAR
STARTCHAR char89
ENCODING 89
SWIDTH 437 0
DWIDTH 7 0
BBX 7 13 0 -2
BITMAP
00
00
44
44
28
28
28
10
10
10
10
00
00
ENDCHAR
STARTCHAR char90
ENCODING 90
SWIDTH 437 0
DWIDTH 7 0
BBX 7 13 0 -2
BITMAP
00
00
7C
04
08
08
10
20
20
40
7C
00
00
ENDCHAR
STARTCHAR char91
ENCODING 91
SWIDTH 437 0
DWIDTH 7 0
BBX 7 13 0 -2
BITMAP
00
78
40
40
40
40
40
40
40
40
40
78
00
ENDCHAR
STARTCHAR char92
ENCODING 92
SWIDTH 437 0
DWIDTH 7 0
BBX 7 13 0 -2
BITMAP
00
40
40
20
20
10
10
10
08
08
04
04
00
ENDCHAR
STARTCHAR char93
ENCODING 93
SWIDTH 437 0
DWIDTH 7 0
BBX 7 13 0 -2
BITMAP
00
3C
04
04
04
04
04
04
04
04
04
3C
00
ENDCHAR
STARTCHAR char94
ENCODING 94
SWIDTH 437 0
DWIDTH 7 0
BBX 7 13 0 -2
BITMAP
00
00
10
28
44
00
00
00
00
00
00
00
00
ENDCHAR
STARTCHAR char95
ENCODING 95
SWIDTH 437 0
DWIDTH 7 0
BBX 7 13 0 -2
BITMAP
00
00
00
00
00
00
00
00
00
00
7C
00
00
ENDCHAR
STARTCHAR char96
ENCODING 96
SWIDTH 437 0
DWIDTH 7 0
BBX 7 13 0 -2
BITMAP
00
00
30
10
08
00
00
00
00
00
00
00
00
ENDCHAR
STARTCHAR char97
ENCODING 97
SWIDTH 437 0
DWIDTH 7 0
BBX 7 13 0 -2
BITMAP
00
00
00
00
38
04
04
3C
44
44
3C
00
00
ENDCHAR
STARTCHAR char98
ENCODING 98
SWIDTH 437 0
DWIDTH 7 0
BBX 7 13 0 -2
BITMAP
00
00
40
40
58
64
44
44
44
44
78
00
00
ENDCHAR
STARTCHAR char99
ENCODING 99
SWIDTH 437 0
DWIDTH 7 0
BBX 7 13 0 -2
BITMAP
00
00
00
00
38
44
40
40
40
44
38
00
00
ENDCHAR
STARTCHAR char100
ENCODING 100
SWIDTH 437 0
DWIDTH 7 0
BBX 7 13 0 -2
BITMAP
00
00
04
04
34
4C
44
44
44
44
3C
00
00
ENDCHAR
STARTCHAR char101
ENCODING 101
SWIDTH 437 0
DWIDTH 7 0
BBX 7 13 0 -2
BITMAP
00
00
00
00
38
44
44
7C
40
40
3C
00
00
ENDCHAR
STARTCHAR char102
ENCODING 102
SWIDTH 437 0
DWIDTH 7 0
BBX 7 13 0 -2
BITMAP
00
00
1C
20
78
20
20
20
20
20
20
00
00
ENDCHAR
STARTCHAR char103
ENCODING 103
SWIDTH 437 0
DWIDTH 7 0
BBX 7 13 0 -2
BITMAP
00
00
00
00
3C
44
44
44
44
4C
34
04
38
ENDCHAR
STARTCHAR char104
ENCODING 104
SWIDTH 437 0
DWIDTH 7 0
BBX 7 13 0 -2
BITMAP
00
00
40
40
58
64
44
44
44
44
44
00
00
ENDCHAR
STARTCHAR char105
ENCODING 105
SWIDTH 437 0
DWIDTH 7 0
BBX 7 13 0 -2
BITMAP
00
10
10
00
30
10
10
10
10
10
38
00
00
ENDCHAR
STARTCHAR char106
ENCODING 106
SWIDTH 437 0
DWIDTH 7 0
BBX 7 13 0 -2
BITMAP
00
10
10
00
70
10
10
10
10
10
10
10
60
ENDCHAR
STARTCHAR char107
ENCODING 107
SWIDTH 437 0
DWIDTH 7 0
BBX 7 13 0 -2
BITMAP
00
00
40
40
44
48
50
60
50
48
44
00
00
ENDCHAR
STARTCHAR char108
ENCODING 108
SWIDTH 437 0
DWIDTH 7 0
BBX 7 13 0 -2
BITMAP
00
00
30
10
10
10
10
10
10
10
38
00
00
ENDCHAR
STARTCHAR char109
ENCODING 109
SWIDTH 437 0
DWIDTH 7 0
BBX 7 13 0 -2
BITMAP
00
00
00
00
44
6C
54
54
44
44
44
00
00
ENDCHAR
STARTCHAR char110
ENCODING 110
SWIDTH 437 0
DWIDTH 7 0
BBX 7 13 0 -2
BITMAP
00
00
00
00
58
64
44
44
44
44
44
00
00
ENDCHAR
STARTCHAR char111
ENCODING 111
SWIDTH 437 0
DWIDTH 7 0
BBX 7 13 0 -2
BITMAP
00
00
00
00
38
44
44
44
44
44
38
00
00
ENDCHAR
STARTCHAR char112
ENCODING 112
SWIDTH 437 0
DWIDTH 7 0
BBX 7 13 0 -2
BITMAP
00
00
00
00
58
64
44
44
44
44
78
40
40
ENDCHAR
STARTCHAR char113
ENCODING 113
SWIDTH 437 0
DWIDTH 7 0
BBX 7 13 0 -2
BITMAP
00
00
00
00
34
4C
44
44
44
44
3C
04
04
ENDCHAR
STARTCHAR char114
ENCODING 114
SWIDTH 437 0
DWIDTH 7 0
BBX 7 13 0 -2
BITMAP
00
00
00
00
5C
60
40
40
40
40
40
00
00
ENDCHAR
STARTCHAR char115
ENCODING 115
SWIDTH 437 0
DWIDTH 7 0
BBX 7 13 0 -2
BITMAP
00
00
00
00
38
44
40
38
04
44
38
00
00
ENDCHAR
STARTCHAR char116
ENCODING 116
SWIDTH 437 0
DWIDTH 7 0
BBX 7 13 0 -2
BITMAP
00
00
20
20
78
20
20
20
20
20
18
00
00
ENDCHAR
STARTCHAR char117
ENCODING 117
SWIDTH 437 0
DWIDTH 7 0
BBX 7 13 0 -2
BITMAP
00
00
00
00
44
44
44
44
44
4C
34
00
00
ENDCHAR
STARTCHAR char118
ENCODING 118
SWIDTH 437 0
DWIDTH 7 0
BBX 7 13 0 -2
BITMAP
00
00
00
00
44
44
28
28
28
10
10
00
00
ENDCHAR
STARTCHAR char119
ENCODING 119
SWIDTH 437 0
DWIDTH 7 0
BBX 7 13 0 -2
BITMAP
00
00
00
00
44
44
44
54
54
6C
44
00
00
ENDCHAR
STARTCHAR char120
ENCODING 120
SWIDTH 437 0
DWIDTH 7 0
BBX 7 13 0 -2
BITMAP
00
00
00
00
44
44
28
10
28
44
44
00
00
ENDCHAR
STARTCHAR char121
ENCODING 121
SWIDTH 437 0
DWIDTH 7 0
BBX 7 13 0 -2
BITMAP
00
00
00
00
44
44
44
44
44
4C
34
04
38
ENDCHAR
STARTCHAR char122
ENCODING 122
SWIDTH 437 0
DWIDTH 7 0
BBX 7 13 0 -2
BITMAP
00
00
00
00
7C
04
08
10
20
40
7C
00
00
ENDCHAR
STARTCHAR char123
ENCODING 123
SWIDTH 437 0
DWIDTH 7 0
BBX 7 13 0 -2
BITMAP
00
18
20
20
20
20
C0
20
20
20
20
18
00
ENDCHAR
STARTCHAR char124
ENCODING 124
SWIDTH 437 0
DWIDTH 7 0
BBX 7 13 0 -2
BITMAP
00
10
10
10
10
10
10
10
10
10
10
10
00
ENDCHAR
STARTCHAR char125
ENCODING 125
SWIDTH 437 0
DWIDTH 7 0
BBX 7 13 0 -2
BITMAP
00
30
08
08
08
08
06
08
08
08
08
30
00
ENDCHAR
STARTCHAR char126
ENCODING 126
SWIDTH 437 0
DWIDTH 7 0
BBX 7 13 0 -2
BITMAP
00
00
00
00
00
32
5A
4C
00
00
00
00
00
ENDCHAR
STARTCHAR char160
ENCODING 160
SWIDTH 437 0
DWIDTH 7 0
BBX 7 13 0 -2
BITMAP
00
00
00
00
00
00
00
00
00
44
7C
00
00
ENDCHAR
STARTCHAR char161
ENCODING 161
SWIDTH 437 0
DWIDTH 7 0
BBX 7 13 0 -2
BITMAP
00
00
10
10
00
10
10
10
10
10
10
00
00
ENDCHAR
STARTCHAR char162
ENCODING 162
SWIDTH 437 0
DWIDTH 7 0
BBX 7 13 0 -2
BITMAP
00
00
00
10
38
54
50
50
50
54
38
10
00
ENDCHAR
STARTCHAR char163
ENCODING 163
SWIDTH 437 0
DWIDTH 7 0
BBX 7 13 0 -2
BITMAP
00
0C
12
12
10
10
3C
10
10
22
7E
00
00
ENDCHAR
STARTCHAR char164
ENCODING 164
SWIDTH 437 0
DWIDTH 7 0
BBX 7 13 0 -2
BITMAP
00
00
00
42
3C
24
24
3C
42
00
00
00
00
ENDCHAR
STARTCHAR char165
ENCODING 165
SWIDTH 437 0
DWIDTH 7 0
BBX 7 13 0 -2
BITMAP
00
44
44
28
28
28
7C
10
7C
10
10
00
00
ENDCHAR
STARTCHAR char166
ENCODING 166
SWIDTH 437 0
DWIDTH 7 0
BBX 7 13 0 -2
BITMAP
00
10
10
10
10
00
00
00
10
10
10
10
00
ENDCHAR
STARTCHAR char167
ENCODING 167
SWIDTH 437 0
DWIDTH 7 0
BBX 7 13 0 -2
BITMAP
00
30
48
40
20
50
48
48
28
10
08
48
30
ENDCHAR
STARTCHAR char168
ENCODING 168
SWIDTH 437 0
DWIDTH 7 0
BBX 7 13 0 -2
BITMAP
00
28
28
00
00
00
00
00
00
00
00
00
00
ENDCHAR
STARTCHAR char169
ENCODING 169
SWIDTH 437 0
DWIDTH 7 0
BBX 7 13 0 -2
BITMAP
00
00
38
44
9A
A2
A2
A2
A2
9A
44
38
00
ENDCHAR
STARTCHAR char170
ENCODING 170
SWIDTH 437 0
DWIDTH 7 0
BBX 7 13 0 -2
BITMAP
18
04
1C
24
1C
00
3C
00
00
00
00
00
00
ENDCHAR
STARTCHAR char171
ENCODING 171
SWIDTH 437 0
DWIDTH 7 0
BBX 7 13 0 -2
BITMAP
00
00
00
00
00
00
24
48
48
24
00
00
00
ENDCHAR
STARTCHAR char172
ENCODING 172
SWIDTH 437 0
DWIDTH 7 0
BBX 7 13 0 -2
BITMAP
00
00
00
00
00
00
00
7C
04
04
04
00
00
ENDCHAR
STARTCHAR char173
ENCODING 173
SWIDTH 437 0
DWIDTH 7 0
BBX 7 13 0 -2
BITMAP
00
00
00
00
00
00
00
38
00
00
00
00
00
ENDCHAR
STARTCHAR char174
ENCODING 174
SWIDTH 437 0
DWIDTH 7 0
BBX 7 13 0 -2
BITMAP
00
00
38
44
B2
AA
AA
B2
AA
AA
44
38
00
ENDCHAR
STARTCHAR char175
ENCODING 175
SWIDTH 437 0
DWIDTH 7 0
BBX 7 13 0 -2
BITMAP
00
7C
00
00
00
00
00
00
00
00
00
00
00
ENDCHAR
STARTCHAR char176
ENCODING 176
SWIDTH 437 0
DWIDTH 7 0
BBX 7 13 0 -2
BITMAP
00
18
24
24
18
00
00
00
00
00
00
00
00
ENDCHAR
STARTCHAR char177
ENCODING 177
SWIDTH 437 0
DWIDTH 7 0
BBX 7 13 0 -2
BITMAP
00
00
00
00
00
10
10
7C
10
10
7C
00
00
ENDCHAR
STARTCHAR char178
ENCODING 178
SWIDTH 437 0
DWIDTH 7 0
BBX 7 13 0 -2
BITMAP
00
18
24
04
08
10
20
3C
00
00
00
00
00
ENDCHAR
STARTCHAR char179
ENCODING 179
SWIDTH 437 0
DWIDTH 7 0
BBX 7 13 0 -2
BITMAP
00
18
24
04
18
04
24
18
00
00
00
00
00
ENDCHAR
STARTCHAR char180
ENCODING 180
SWIDTH 437 0
DWIDTH 7 0
BBX 7 13 0 -2
BITMAP
00
08
10
00
00
00
00
00
00
00
00
00
00
ENDCHAR
STARTCHAR char181
ENCODING 181
SWIDTH 437 0
DWIDTH 7 0
BBX 7 13 0 -2
BITMAP
00
00
00
44
44
44
44
44
44
6C
54
44
40
ENDCHAR
STARTCHAR char182
ENCODING 182
SWIDTH 437 0
DWIDTH 7 0
BBX 7 13 0 -2
BITMAP
00
3C
74
74
74
74
34
14
14
14
14
00
00
ENDCHAR
STARTCHAR char183
ENCODING 183
SWIDTH 437 0
DWIDTH 7 0
BBX 7 13 0 -2
BITMAP
00
00
00
00
00
00
18
18
00
00
00
00
00
ENDCHAR
STARTCHAR char184
ENCODING 184
SWIDTH 437 0
DWIDTH 7 0
BBX 7 13 0 -2
BITMAP
00
00
00
00
00
00
00
00
00
00
00
10
20
ENDCHAR
STARTCHAR char185
ENCODING 185
SWIDTH 437 0
DWIDTH 7 0
BBX 7 13 0 -2
BITMAP
00
10
30
50
10
10
10
10
00
00
00
00
00
ENDCHAR
STARTCHAR char186
ENCODING 186
SWIDTH 437 0
DWIDTH 7 0
BBX 7 13 0 -2
BITMAP
00
18
24
24
18
00
3C
00
00
00
00
00
00
ENDCHAR
STARTCHAR char187
ENCODING 187
SWIDTH 437 0
DWIDTH 7 0
BBX 7 13 0 -2
BITMAP
00
00
00
00
00
00
48
24
24
48
00
00
00
ENDCHAR
STARTCHAR char188
ENCODING 188
SWIDTH 437 0
DWIDTH 7 0
BBX 7 13 0 -2
BITMAP
00
20
60
A2
24
28
10
24
4C
94
1E
04
04
ENDCHAR
STARTCHAR char189
ENCODING 189
SWIDTH 437 0
DWIDTH 7 0
BBX 7 13 0 -2
BITMAP
00
20
60
A2
24
28
10
2C
52
82
04
08
1E
ENDCHAR
STARTCHAR char190
ENCODING 190
SWIDTH 437 0
DWIDTH 7 0
BBX 7 13 0 -2
BITMAP
60
90
20
12
94
68
10
24
4C
94
1E
04
04
ENDCHAR
STARTCHAR char191
ENCODING 191
SWIDTH 437 0
DWIDTH 7 0
BBX 7 13 0 -2
BITMAP
00
10
10
00
00
10
30
40
44
44
38
00
00
ENDCHAR
STARTCHAR char192
ENCODING 192
SWIDTH 437 0
DWIDTH 7 0
BBX 7 13 0 -2
BITMAP
10
08
00
18
18
24
24
3C
42
42
42
00
00
ENDCHAR
STARTCHAR char193
ENCODING 193
SWIDTH 437 0
DWIDTH 7 0
BBX 7 13 0 -2
BITMAP
08
10
00
18
18
24
24
3C
42
42
42
00
00
ENDCHAR
STARTCHAR char194
ENCODING 194
SWIDTH 437 0
DWIDTH 7 0
BBX 7 13 0 -2
BITMAP
18
24
00
18
18
24
24
3C
42
42
42
00
00
ENDCHAR
STARTCHAR char195
ENCODING 195
SWIDTH 437 0
DWIDTH 7 0
BBX 7 13 0 -2
BITMAP
14
28
00
18
18
24
24
3C
42
42
42
00
00
ENDCHAR
STARTCHAR char196
ENCODING 196
SWIDTH 437 0
DWIDTH 7 0
BBX 7 13 0 -2
BITMAP
24
24
00
18
18
24
24
3C
42
42
42
00
00
ENDCHAR
STARTCHAR char197
ENCODING 197
SWIDTH 437 0
DWIDTH 7 0
BBX 7 13 0 -2
BITMAP
18
24
24
18
18
24
24
3C
42
42
42
00
00
ENDCHAR
STARTCHAR char198
ENCODING 198
SWIDTH 437 0
DWIDTH 7 0
BBX 7 13 0 -2
BITMAP
00
00
0E
18
18
28
2E
38
48
48
4E
00
00
ENDCHAR
STARTCHAR char199
ENCODING 199
SWIDTH 437 0
DWIDTH 7 0
BBX 7 13 0 -2
BITMAP
00
38
44
40
40
40
40
40
40
44
38
10
20
ENDCHAR
STARTCHAR char200
ENCODING 200
SWIDTH 437 0
DWIDTH 7 0
BBX 7 13 0 -2
BITMAP
20
10
00
7C
40
40
78
40
40
40
7C
00
00
ENDCHAR
STARTCHAR char201
ENCODING 201
SWIDTH 437 0
DWIDTH 7 0
BBX 7 13 0 -2
BITMAP
10
20
00
7C
40
40
78
40
40
40
7C
00
00
ENDCHAR
STARTCHAR char202
ENCODING 202
SWIDTH 437 0
DWIDTH 7 0
BBX 7 13 0 -2
BITMAP
10
28
00
7C
40
40
78
40
40
40
7C
00
00
ENDCHAR
STARTCHAR char203
ENCODING 203
SWIDTH 437 0
DWIDTH 7 0
BBX 7 13 0 -2
BITMAP
28
28
00
7C
40
40
78
40
40
40
7C
00
00
ENDCHAR
STARTCHAR char204
ENCODING 204
SWIDTH 437 0
DWIDTH 7 0
BBX 7 13 0 -2
BITMAP
20
10
00
7C
10
10
10
10
10
10
7C
00
00
ENDCHAR
STARTCHAR char205
ENCODING 205
SWIDTH 437 0
DWIDTH 7 0
BBX 7 13 0 -2
BITMAP
10
20
00
7C
10
10
10
10
10
10
7C
00
00
ENDCHAR
STARTCHAR char206
ENCODING 206
SWIDTH 437 0
DWIDTH 7 0
BBX 7 13 0 -2
BITMAP
10
28
00
7C
10
10
10
10
10
10
7C
00
00
ENDCHAR
STARTCHAR char207
ENCODING 207
SWIDTH 437 0
DWIDTH 7 0
BBX 7 13 0 -2
BITMAP
28
28
00
7C
10
10
10
10
10
10
7C
00
00
ENDCHAR
STARTCHAR char208
ENCODING 208
SWIDTH 437 0
DWIDTH 7 0
BBX 7 13 0 -2
BITMAP
00
00
70
48
44
44
E4
44
44
48
70
00
00
ENDCHAR
STARTCHAR char209
ENCODING 209
SWIDTH 437 0
DWIDTH 7 0
BBX 7 13 0 -2
BITMAP
28
50
00
44
64
64
54
54
4C
4C
44
00
00
ENDCHAR
STARTCHAR char210
ENCODING 210
SWIDTH 437 0
DWIDTH 7 0
BBX 7 13 0 -2
BITMAP
20
10
00
38
44
44
44
44
44
44
38
00
00
ENDCHAR
STARTCHAR char211
ENCODING 211
SWIDTH 437 0
DWIDTH 7 0
BBX 7 13 0 -2
BITMAP
10
20
00
38
44
44
44
44
44
44
38
00
00
ENDCHAR
STARTCHAR char212
ENCODING 212
SWIDTH 437 0
DWIDTH 7 0
BBX 7 13 0 -2
BITMAP
10
28
00
38
44
44
44
44
44
44
38
00
00
ENDCHAR
STARTCHAR char213
ENCODING 213
SWIDTH 437 0
DWIDTH 7 0
BBX 7 13 0 -2
BITMAP
28
50
00
38
44
44
44
44
44
44
38
00
00
ENDCHAR
STARTCHAR char214
ENCODING 214
SWIDTH 437 0
DWIDTH 7 0
BBX 7 13 0 -2
BITMAP
28
28
00
38
44
44
44
44
44
44
38
00
00
ENDCHAR
STARTCHAR char215
ENCODING 215
SWIDTH 437 0
DWIDTH 7 0
BBX 7 13 0 -2
BITMAP
00
00
00
00
44
28
10
28
44
00
00
00
00
ENDCHAR
STARTCHAR char216
ENCODING 216
SWIDTH 437 0
DWIDTH 7 0
BBX 7 13 0 -2
BITMAP
00
00
3A
44
4C
4C
54
64
64
44
B8
00
00
ENDCHAR
STARTCHAR char217
ENCODING 217
SWIDTH 437 0
DWIDTH 7 0
BBX 7 13 0 -2
BITMAP
20
10
00
44
44
44
44
44
44
44
38
00
00
ENDCHAR
STARTCHAR char218
ENCODING 218
SWIDTH 437 0
DWIDTH 7 0
BBX 7 13 0 -2
BITMAP
10
20
00
44
44
44
44
44
44
44
38
00
00
ENDCHAR
STARTCHAR char219
ENCODING 219
SWIDTH 437 0
DWIDTH 7 0
BBX 7 13 0 -2
BITMAP
10
28
00
44
44
44
44
44
44
44
38
00
00
ENDCHAR
STARTCHAR char220
ENCODING 220
SWIDTH 437 0
DWIDTH 7 0
BBX 7 13 0 -2
BITMAP
28
28
00
44
44
44
44
44
44
44
38
00
00
ENDCHAR
STARTCHAR char221
ENCODING 221
SWIDTH 437 0
DWIDTH 7 0
BBX 7 13 0 -2
BITMAP
10
20
00
44
44
28
28
10
10
10
10
00
00
ENDCHAR
STARTCHAR char222
ENCODING 222
SWIDTH 437 0
DWIDTH 7 0
BBX 7 13 0 -2
BITMAP
00
00
40
40
78
44
44
44
44
78
40
40
00
ENDCHAR
STARTCHAR char223
ENCODING 223
SWIDTH 437 0
DWIDTH 7 0
BBX 7 13 0 -2
BITMAP
00
00
30
48
48
50
58
44
44
44
48
00
00
ENDCHAR
STARTCHAR char224
ENCODING 224
SWIDTH 437 0
DWIDTH 7 0
BBX 7 13 0 -2
BITMAP
00
20
10
00
38
04
04
3C
44
44
3C
00
00
ENDCHAR
STARTCHAR char225
ENCODING 225
SWIDTH 437 0
DWIDTH 7 0
BBX 7 13 0 -2
BITMAP
00
08
10
00
38
04
04
3C
44
44
3C
00
00
ENDCHAR
STARTCHAR char226
ENCODING 226
SWIDTH 437 0
DWIDTH 7 0
BBX 7 13 0 -2
BITMAP
00
10
28
00
38
04
04
3C
44
44
3C
00
00
ENDCHAR
STARTCHAR char227
ENCODING 227
SWIDTH 437 0
DWIDTH 7 0
BBX 7 13 0 -2
BITMAP
00
14
28
00
38
04
04
3C
44
44
3C
00
00
ENDCHAR
STARTCHAR char228
ENCODING 228
SWIDTH 437 0
DWIDTH 7 0
BBX 7 13 0 -2
BITMAP
00
28
28
00
38
04
04
3C
44
44
3C
00
00
ENDCHAR
STARTCHAR char229
ENCODING 229
SWIDTH 437 0
DWIDTH 7 0
BBX 7 13 0 -2
BITMAP
10
28
10
00
38
04
04
3C
44
44
3C
00
00
ENDCHAR
STARTCHAR char230
ENCODING 230
SWIDTH 437 0
DWIDTH 7 0
BBX 7 13 0 -2
BITMAP
00
00
00
00
6C
12
12
7C
90
90
6C
00
00
ENDCHAR
STARTCHAR char231
ENCODING 231
SWIDTH 437 0
DWIDTH 7 0
BBX 7 13 0 -2
BITMAP
00
00
00
00
38
44
40
40
40
44
38
10
20
ENDCHAR
STARTCHAR char232
ENCODING 232
SWIDTH 437 0
DWIDTH 7 0
BBX 7 13 0 -2
BITMAP
00
20
10
00
38
44
44
7C
40
40
3C
00
00
ENDCHAR
STARTCHAR char233
ENCODING 233
SWIDTH 437 0
DWIDTH 7 0
BBX 7 13 0 -2
BITMAP
00
08
10
00
38
44
44
7C
40
40
3C
00
00
ENDCHAR
STARTCHAR char234
ENCODING 234
SWIDTH 437 0
DWIDTH 7 0
BBX 7 13 0 -2
BITMAP
00
10
28
00
38
44
44
7C
40
40
3C
00
00
ENDCHAR
STARTCHAR char235
ENCODING 235
SWIDTH 437 0
DWIDTH 7 0
BBX 7 13 0 -2
BITMAP
00
28
28
00
38
44
44
7C
40
40
3C
00
00
ENDCHAR
STARTCHAR char236
ENCODING 236
SWIDTH 437 0
DWIDTH 7 0
BBX 7 13 0 -2
BITMAP
00
20
10
00
30
10
10
10
10
10
38
00
00
ENDCHAR
STARTCHAR char237
ENCODING 237
SWIDTH 437 0
DWIDTH 7 0
BBX 7 13 0 -2
BITMAP
00
08
10
00
30
10
10
10
10
10
38
00
00
ENDCHAR
STARTCHAR char238
ENCODING 238
SWIDTH 437 0
DWIDTH 7 0
BBX 7 13 0 -2
BITMAP
00
10
28
00
30
10
10
10
10
10
38
00
00
ENDCHAR
STARTCHAR char239
ENCODING 239
SWIDTH 437 0
DWIDTH 7 0
BBX 7 13 0 -2
BITMAP
00
28
28
00
30
10
10
10
10
10
38
00
00
ENDCHAR
STARTCHAR char240
ENCODING 240
SWIDTH 437 0
DWIDTH 7 0
BBX 7 13 0 -2
BITMAP
00
48
30
50
18
28
44
44
44
44
38
00
00
ENDCHAR
STARTCHAR char241
ENCODING 241
SWIDTH 437 0
DWIDTH 7 0
BBX 7 13 0 -2
BITMAP
00
14
28
00
58
64
44
44
44
44
44
00
00
ENDCHAR
STARTCHAR char242
ENCODING 242
SWIDTH 437 0
DWIDTH 7 0
BBX 7 13 0 -2
BITMAP
00
20
10
00
38
44
44
44
44
44
38
00
00
ENDCHAR
STARTCHAR char243
ENCODING 243
SWIDTH 437 0
DWIDTH 7 0
BBX 7 13 0 -2
BITMAP
00
08
10
00
38
44
44
44
44
44
38
00
00
ENDCHAR
STARTCHAR char244
ENCODING 244
SWIDTH 437 0
DWIDTH 7 0
BBX 7 13 0 -2
BITMAP
00
10
28
00
38
44
44
44
44
44
38
00
00
ENDCHAR
STARTCHAR char245
ENCODING 245
SWIDTH 437 0
DWIDTH 7 0
BBX 7 13 0 -2
BITMAP
00
14
28
00
38
44
44
44
44
44
38
00
00
ENDCHAR
STARTCHAR char246
ENCODING 246
SWIDTH 437 0
DWIDTH 7 0
BBX 7 13 0 -2
BITMAP
00
28
28
00
38
44
44
44
44
44
38
00
00
ENDCHAR
STARTCHAR char247
ENCODING 247
SWIDTH 437 0
DWIDTH 7 0
BBX 7 13 0 -2
BITMAP
00
00
00
10
10
00
7C
00
10
10
00
00
00
ENDCHAR
STARTCHAR char248
ENCODING 248
SWIDTH 437 0
DWIDTH 7 0
BBX 7 13 0 -2
BITMAP
00
00
00
00
3A
44
4C
54
64
44
B8
00
00
ENDCHAR
STARTCHAR char249
ENCODING 249
SWIDTH 437 0
DWIDTH 7 0
BBX 7 13 0 -2
BITMAP
00
20
10
00
44
44
44
44
44
4C
34
00
00
ENDCHAR
STARTCHAR char250
ENCODING 250
SWIDTH 437 0
DWIDTH 7 0
BBX 7 13 0 -2
BITMAP
00
08
10
00
44
44
44
44
44
4C
34
00
00
ENDCHAR
STARTCHAR char251
ENCODING 251
SWIDTH 437 0
DWIDTH 7 0
BBX 7 13 0 -2
BITMAP
00
10
28
00
44
44
44
44
44
4C
34
00
00
ENDCHAR
STARTCHAR char252
ENCODING 252
SWIDTH 437 0
DWIDTH 7 0
BBX 7 13 0 -2
BITMAP
00
28
28
00
44
44
44
44
44
4C
34
00
00
ENDCHAR
STARTCHAR char253
ENCODING 253
SWIDTH 437 0
DWIDTH 7 0
BBX 7 13 0 -2
BITMAP
00
08
10
00
44
44
44
44
44
4C
34
04
38
ENDCHAR
STARTCHAR char254
ENCODING 254
SWIDTH 437 0
DWIDTH 7 0
BBX 7 13 0 -2
BITMAP
00
40
40
58
64
44
44
44
44
64
58
40
40
ENDCHAR
STARTCHAR char255
ENCODING 255
SWIDTH 437 0
DWIDTH 7 0
BBX 7 13 0 -2
BITMAP
00
28
28
00
44
44
44
44
44
4C
34
04
38
ENDCHAR
ENDFONT
